<?xml version="1.0" encoding="UTF-8" standalone="no"?>
<!-- Created with Inkscape (http://www.inkscape.org/) -->

<svg
        xmlns:dc="http://purl.org/dc/elements/1.1/"
        xmlns:cc="http://creativecommons.org/ns#"
        xmlns:rdf="http://www.w3.org/1999/02/22-rdf-syntax-ns#"
        xmlns="http://www.w3.org/2000/svg"
        xmlns:sodipodi="http://sodipodi.sourceforge.net/DTD/sodipodi-0.dtd"
        xmlns:inkscape="http://www.inkscape.org/namespaces/inkscape"
        width="256"
        height="256"
        viewBox="0 0 256 256"
        id="svg3366"
        version="1.1"
        inkscape:version="0.92.3 (2405546, 2018-03-11)"
        sodipodi:docname="scaffan_icon.svg"
        inkscape:export-filename="C:\Users\miros\projects\scaffan\graphics\scaffan_icon256.png"
        inkscape:export-xdpi="96"
        inkscape:export-ydpi="96">
  <defs
     id="defs3368" />
  <sodipodi:namedview
     id="base"
     pagecolor="#ffffff"
     bordercolor="#666666"
     borderopacity="1.0"
     inkscape:pageopacity="0.0"
     inkscape:pageshadow="2"
     inkscape:zoom="1.979899"
     inkscape:cx="92.094486"
     inkscape:cy="116.6726"
     inkscape:document-units="px"
     inkscape:current-layer="layer1"
     showgrid="false"
     units="px"
     inkscape:window-width="1920"
     inkscape:window-height="1001"
     inkscape:window-x="-9"
     inkscape:window-y="-9"
     inkscape:window-maximized="1" />
  <metadata
     id="metadata3371">
    <rdf:RDF>
      <cc:Work
         rdf:about="">
        <dc:format>image/svg+xml</dc:format>
        <dc:type
           rdf:resource="http://purl.org/dc/dcmitype/StillImage" />
        <dc:title></dc:title>
      </cc:Work>
    </rdf:RDF>
  </metadata>
  <g
     inkscape:label="Vrstva 1"
     inkscape:groupmode="layer"
     id="layer1"
     transform="translate(0,-796.3622)">
    <path
       style="fill:#ba5190;fill-opacity:1;stroke:none;stroke-width:1px;stroke-linecap:butt;stroke-linejoin:miter;stroke-opacity:1"
       d="m -19.697974,1067.5146 c 4.150019,12.4901 34.838692,-23.0536 134.350284,-23.7386 146.05559,-1.0054 181.14722,18.7613 174.75639,2.5253 13.29828,-28.3792 -46.38123,-56.737 -52.02286,-62.62948 -14.66392,-1.28148 -20.51373,-14.92531 -32.77948,-16.15909 -20.81871,-2.0941 -52.34044,10.81432 -85.14868,16.47824 -36.924977,6.37462 -61.052649,-1.04582 -71.475437,-13.95621 -26.091781,-32.31908 20.825363,-92.84763 56.568547,-117.68277 22.63166,-15.72497 60.27765,-24.10715 82.32743,-7.57614 21.13462,15.84489 17.4735,54.68411 15.15229,77.78175 -1.82939,18.20366 -28.37867,43.24409 -41.65801,50.26299 -11.6479,6.1566 -30.67054,10.81166 -26.81702,11.55033 9.30645,1.78394 51.50189,-11.70079 53.82781,-8.0227 34.03859,-12.78953 27.53036,14.54679 50.00255,7.3236 -37.83806,-42.07046 -20.70703,-98.50972 42.67895,-112.88454 -28.28974,3.86612 -122.0002,-69.71226 -124.5013,-94.19673 -3.04342,0.76086 -37.78586,43.84441 -40.4061,45.45687 -29.668077,36.08823 -139.080558,-36.63593 -154.048265,-77.27667 -4.431879,53.9917 84.709033,84.16352 73.236061,143.44165 -11.472972,59.27813 -65.988589,143.3506 -54.04316,179.3022 z"
       id="path835"
       inkscape:connector-curvature="0"
       sodipodi:nodetypes="ssccsssaassscccccczs" />
    <path
       style="fill:#ba5190;fill-opacity:1;fill-rule:evenodd;stroke:none;stroke-width:1px;stroke-linecap:butt;stroke-linejoin:miter;stroke-opacity:1"
       d="m -326.59982,989.11626 c 31.64651,0.72521 67.52439,-35.14104 87.6348,-68.21876 20.11041,-33.07772 12.30293,-81.1992 0.66193,-126.69465 l 11.25276,-7.25822 21.10662,5.5572 c 19.55896,130.88997 48.09825,65.1782 132.414074,-0.1411 l 40.45261,8.83435 c 0,0 -91.849514,75.25003 -99.979664,83.40764 -8.13015,8.15707 -144.94795,109.10559 -6.68832,108.77934 49.324194,0.45348 129.923114,-32.39834 129.923114,-32.39834 l -30.1132,115.77738 c -89.017664,-11.4864 -147.625474,-4.5137 -185.155024,-6.0282 -37.52955,-1.5146 -44.1078,-5.9652 -97.38129,-0.3158 -31.45895,-32.4241 -29.92729,-56.949 -4.12841,-81.30084 z"
       id="path3376"
       inkscape:connector-curvature="0"
       sodipodi:nodetypes="czccccczccczcc" />
    <flowRoot
       xml:space="preserve"
       id="flowRoot3334"
       style="font-style:normal;font-variant:normal;font-weight:bold;font-stretch:normal;line-height:0.01%;font-family:sans-serif;-inkscape-font-specification:'sans-serif Bold';letter-spacing:0px;word-spacing:0px;fill:#ffffff;fill-opacity:1;stroke:none;stroke-width:1px;stroke-linecap:butt;stroke-linejoin:miter;stroke-opacity:1"
       transform="matrix(1.1476683,0,0,1.1942671,122.76583,870.86336)"><flowRegion
         id="flowRegion3336"><rect
           id="rect3338"
           width="399.51532"
           height="91.923882"
           x="-110.10663"
           y="93.36544"
           style="font-style:normal;font-variant:normal;font-weight:bold;font-stretch:normal;font-size:53.75px;font-family:sans-serif;-inkscape-font-specification:'sans-serif Bold';fill:#ffffff;fill-opacity:1" /></flowRegion><flowPara
         id="flowPara3340"
         style="font-size:53.75px;line-height:1.25">ScaffAn</flowPara></flowRoot>    <path
       style="fill:none;fill-opacity:1;stroke:#ba5190;stroke-width:7.80472422;stroke-linecap:butt;stroke-linejoin:miter;stroke-miterlimit:4;stroke-dasharray:none;stroke-opacity:1"
       d="m 152.02796,893.26318 c -11.16483,-9.542 -20.26584,-1.5965 -21.46574,12.87945 -1.1999,14.47595 6.47254,18.16657 15.65736,14.39467 9.18482,-3.7719 16.97321,-17.73212 5.80838,-27.27412 z"
       id="path845"
       inkscape:connector-curvature="0"
       sodipodi:nodetypes="zzzz" />
  </g>
</svg>
