<?xml version="1.0" encoding="UTF-8" standalone="no"?>
<!-- Created with Inkscape (http://www.inkscape.org/) -->

<svg
   xmlns:dc="http://purl.org/dc/elements/1.1/"
   xmlns:cc="http://creativecommons.org/ns#"
   xmlns:rdf="http://www.w3.org/1999/02/22-rdf-syntax-ns#"
   xmlns:svg="http://www.w3.org/2000/svg"
   xmlns="http://www.w3.org/2000/svg"
   xmlns:sodipodi="http://sodipodi.sourceforge.net/DTD/sodipodi-0.dtd"
   xmlns:inkscape="http://www.inkscape.org/namespaces/inkscape"
   id="svg3004"
   version="1.1"
   inkscape:version="0.48.5 r10040"
   width="146.665"
   height="146.665"
   xml:space="preserve"
   sodipodi:docname="syncthing-client-error.svg"><metadata
     id="metadata3010"><rdf:RDF><cc:Work
         rdf:about=""><dc:format>image/svg+xml</dc:format><dc:type
           rdf:resource="http://purl.org/dc/dcmitype/StillImage" /><dc:title /></cc:Work></rdf:RDF></metadata><defs
     id="defs3008"><linearGradient
       x1="0"
       y1="0"
       x2="1"
       y2="0"
       gradientUnits="userSpaceOnUse"
       gradientTransform="matrix(-5.1e-6,117.33203,117.33203,5.1e-6,58.666016,0)"
       spreadMethod="pad"
       id="linearGradient3026"><stop
         style="stop-opacity:1;stop-color:#0882c8"
         offset="0"
         id="stop3028" /><stop
         style="stop-opacity:1;stop-color:#26b6db"
         offset="1"
         id="stop3030" /></linearGradient><clipPath
       clipPathUnits="userSpaceOnUse"
       id="clipPath3038"><path
         d="m 0,117.332 117.332,0 L 117.332,0 0,0 0,117.332 z"
         id="path3040" /></clipPath></defs><sodipodi:namedview
     pagecolor="#ffffff"
     bordercolor="#666666"
     borderopacity="1"
     objecttolerance="10"
     gridtolerance="10"
     guidetolerance="10"
     inkscape:pageopacity="0"
     inkscape:pageshadow="2"
     inkscape:window-width="1366"
     inkscape:window-height="710"
     id="namedview3006"
     showgrid="false"
     inkscape:zoom="2.2756241"
     inkscape:cx="-9.0959301"
     inkscape:cy="62.229157"
     inkscape:window-x="0"
     inkscape:window-y="29"
     inkscape:window-maximized="1"
     inkscape:current-layer="g3012"
     inkscape:snap-center="true" /><g
     id="g3012"
     inkscape:groupmode="layer"
     inkscape:label="logo"
     transform="matrix(1.25,0,0,-1.25,0,146.665)"><g
       id="g3014"
       style="fill:#ff0000"><g
         id="g3016"
         style="fill:#ff0000"><g
           id="g3022"
           style="fill:#ff0000"><g
             id="g3024"
             style="fill:#ff0000"><path
               d="M 58.666,117.332 C 26.266,117.332 0,91.066 0,58.666 l 0,0 C 0,26.266 26.266,0 58.666,0 l 0,0 c 32.399,0 58.666,26.266 58.666,58.666 l 0,0 c 0,32.4 -26.267,58.666 -58.666,58.666 z"
               style="fill:#ff0000;stroke:none"
               id="path3032" /></g></g></g></g><g
       id="g3034"><g
         id="g3036"
         clip-path="url(#clipPath3038)"><g
           id="g3042"
           transform="translate(102.332,58.8789)"><path
             d="m 0,0 c 0,24.117 -19.551,43.666 -43.666,43.666 -24.117,0 -43.666,-19.549 -43.666,-43.666 0,-24.115 19.549,-43.666 43.666,-43.666 C -19.551,-43.666 0,-24.115 0,0 z"
             style="fill:none;stroke:#ffffff;stroke-opacity:1;stroke-width:6;stroke-linecap:butt;stroke-linejoin:miter;stroke-miterlimit:10;stroke-dasharray:none"
             id="path3044" /></g><g
           id="g3046"
           transform="translate(94.666,69.4863)"><path
             d="M 0,0 C 4.695,-1.625 9.82,0.865 11.447,5.562 13.072,10.256 10.578,15.385 5.883,17.008 1.187,18.635 -3.939,16.143 -5.564,11.445 -7.187,6.748 -4.697,1.623 0,0"
             style="fill:#ffffff;fill-opacity:1;fill-rule:nonzero;stroke:none"
             id="path3048" /></g><g
           id="g3050"
           transform="translate(97.584,77.9785)"><path
             d="M 0,0 -30.071,-25.042"
             style="fill:none;stroke:#ffffff;stroke-opacity:1;stroke-width:6;stroke-linecap:butt;stroke-linejoin:miter;stroke-miterlimit:10;stroke-dasharray:none"
             id="path3052" /></g><g
           id="g3054"
           transform="translate(77.584,26.3535)"><path
             d="m 0,0 c -0.445,-4.949 3.213,-9.32 8.158,-9.766 4.951,-0.443 9.326,3.213 9.768,8.162 0.443,4.948 -3.211,9.321 -8.16,9.766 C 4.814,8.604 0.441,4.951 0,0"
             style="fill:#ffffff;fill-opacity:1;fill-rule:nonzero;stroke:none"
             id="path3056" /></g><g
           id="g3058"
           transform="translate(86.5293,25.5703)"><path
             d="M 0,0 -19.017,27.366"
             style="fill:none;stroke:#ffffff;stroke-opacity:1;stroke-width:6;stroke-linecap:butt;stroke-linejoin:miter;stroke-miterlimit:10;stroke-dasharray:none"
             id="path3060" /></g><g
           id="g3062"
           transform="translate(59.959,48.0449)"><path
             d="M 0,0 C 2.697,-4.17 8.27,-5.363 12.443,-2.664 16.615,0.033 17.809,5.609 15.107,9.779 12.408,13.953 6.834,15.146 2.662,12.445 -1.508,9.744 -2.703,4.172 0,0"
             style="fill:#ffffff;fill-opacity:1;fill-rule:nonzero;stroke:none"
             id="path3064" /></g><g
           id="g3066"
           transform="translate(21.1543,55.9199)"><path
             d="m 0,0 c -4.266,2.541 -9.789,1.146 -12.338,-3.123 -2.541,-4.268 -1.148,-9.793 3.123,-12.336 4.268,-2.549 9.795,-1.148 12.338,3.123 C 5.668,-8.066 4.271,-2.543 0,0"
             style="fill:#ffffff;fill-opacity:1;fill-rule:nonzero;stroke:none"
             id="path3068" /></g><g
           id="g3070"
           transform="translate(16.5703,48.1973)"><path
             d="M 0,0 50.942,4.739"
             style="fill:none;stroke:#ffffff;stroke-opacity:1;stroke-width:6;stroke-linecap:butt;stroke-linejoin:miter;stroke-miterlimit:10;stroke-dasharray:none"
             id="path3072" /></g></g></g></g><g
     inkscape:groupmode="layer"
     id="layer2"
     inkscape:label="Down"
     style="display:none"><path
       style="fill:#00ff00;stroke:#00ff00;stroke-width:1.60866332px;stroke-linecap:butt;stroke-linejoin:miter;stroke-opacity:1"
       d="M 66.206974,76.509739 35.081454,140.64468 6.8431382,75.944766 22.851368,76.097049 22.555104,7.1678662 48.671735,7.4164267 48.86473,76.344635 z"
       id="path3127-8"
       inkscape:connector-curvature="0"
       sodipodi:nodetypes="cccccccc" /></g><g
     inkscape:groupmode="layer"
     id="layer1"
     inkscape:label="Upload"
     style="display:none"><path
       style="fill:#ff0000;stroke:#ff0000;stroke-width:1.61063087px;stroke-linecap:butt;stroke-linejoin:miter;stroke-opacity:1"
       d="m 82.844202,71.687668 31.159458,-63.6000606 29.12733,63.6000606 -16.25712,0 0.78225,68.037272 -26.52268,0 -0.67737,-68.037272 z"
       id="path3127"
       inkscape:connector-curvature="0"
       sodipodi:nodetypes="cccccccc" /></g><g
     inkscape:groupmode="layer"
     id="layer3"
     inkscape:label="update"
     style="display:none"><g
       style="font-size:40px;font-style:normal;font-weight:normal;line-height:125%;letter-spacing:0px;word-spacing:0px;fill:#000000;fill-opacity:1;stroke:none;font-family:Sans"
       id="text3022"
       transform="matrix(12.368235,0,0,10.327025,-81.772709,-107.10191)"><path
         d="m 14.954303,16.650007 0,-0.292969 c -7e-6,-0.363276 -0.06446,-0.703119 -0.19336,-1.019531 -0.136725,-0.324213 -0.330084,-0.611322 -0.580078,-0.861328 -0.250005,-0.246087 -0.535161,-0.437493 -0.855468,-0.574219 -0.304693,-0.128899 -0.642583,-0.193352 -1.013672,-0.193359 -0.371098,7e-6 -0.701176,0.06446 -0.990235,0.193359 -0.33594,0.152351 -0.621096,0.343757 -0.855468,0.574219 -0.257815,0.257819 -0.451174,0.544928 -0.5800786,0.861328 -0.1289078,0.316412 -0.1933608,0.656255 -0.1933594,1.019531 l -0.9960937,0 c -5e-7,-0.496088 0.089843,-0.962885 0.2695312,-1.40039 0.1757804,-0.417963 0.4433582,-0.812494 0.8027344,-1.183594 0.3515611,-0.33593 0.7421851,-0.599602 1.1718751,-0.791016 0.421872,-0.179679 0.882809,-0.269523 1.382812,-0.269531 0.499996,8e-6 0.960933,0.08985 1.382813,0.269531 0.429682,0.191414 0.820306,0.455086 1.171875,0.791016 0.359368,0.3711 0.626946,0.765631 0.802734,1.183594 0.17968,0.437505 0.269524,0.904302 0.269532,1.40039 l 0,0.292969 1.371093,-1.371094 0.703125,0.703125 -2.308593,2.308594 -0.527344,0 -2.296875,-2.308594 0.703125,-0.703125 1.359375,1.371094"
         style="font-size:12px;fill:#000000"
         id="path3027"
         inkscape:connector-curvature="0" /></g><g
       id="g3041"
       style="font-size:40px;font-style:normal;font-weight:normal;line-height:125%;letter-spacing:0px;word-spacing:0px;fill:#000000;fill-opacity:1;stroke:none;font-family:Sans"
       transform="matrix(-12.368235,0,0,-10.327025,223.81731,275.30836)"><path
         inkscape:connector-curvature="0"
         id="path3043"
         style="font-size:12px;fill:#000000"
         d="m 14.954303,18.650007 0,-0.292969 c -7e-6,-0.363276 -0.06446,-0.703119 -0.19336,-1.019531 -0.136725,-0.324213 -0.330084,-0.611322 -0.580078,-0.861328 -0.250005,-0.246087 -0.535161,-0.437493 -0.855468,-0.574219 -0.304693,-0.128899 -0.642583,-0.193352 -1.013672,-0.193359 -0.371098,7e-6 -0.701176,0.06446 -0.990235,0.193359 -0.33594,0.152351 -0.621096,0.343757 -0.855468,0.574219 -0.257815,0.257819 -0.451174,0.544928 -0.5800786,0.861328 -0.1289078,0.316412 -0.1933608,0.656255 -0.1933594,1.019531 l -0.9960937,0 c -5e-7,-0.496088 0.089843,-0.962885 0.2695312,-1.40039 0.1757804,-0.417963 0.4433582,-0.812494 0.8027344,-1.183594 0.3515611,-0.33593 0.7421851,-0.599602 1.1718751,-0.791016 0.421872,-0.179679 0.882809,-0.269523 1.382812,-0.269531 0.499996,8e-6 0.960933,0.08985 1.382813,0.269531 0.429682,0.191414 0.820306,0.455086 1.171875,0.791016 0.359368,0.3711 0.626946,0.765631 0.802734,1.183594 0.17968,0.437505 0.269524,0.904302 0.269532,1.40039 l 0,0.292969 1.371093,-1.371094 0.703125,0.703125 -2.308593,2.308594 -0.527344,0 -2.296875,-2.308594 0.703125,-0.703125 1.359375,1.371094" /></g></g><g
     inkscape:groupmode="layer"
     id="layer4"
     inkscape:label="error" /></svg>